<?xml version="1.0" standalone="no"?>
<!DOCTYPE svg PUBLIC "-//W3C//DTD SVG 1.1//EN" "http://www.w3.org/Graphics/SVG/1.1/DTD/svg11.dtd">
<svg width="161.0mm" height="128.000000000008mm"
 viewBox="0 0 161.0 128.000000000008"
 xmlns="http://www.w3.org/2000/svg" version="1.1"
 xmlns:xlink="http://www.w3.org/1999/xlink">
<desc>Output from Flights of Ideas SVG Sketchup Plugin</desc>

  <path id="face0-cut"
 style="fill:none;stroke:#0000FF;stroke-width:1;stroke-miterlimit:4;stroke-dasharray:none;stroke-linejoin:round;stroke-linecap:round"
        d="M 157.0,4.00000000000784 L 120.499999999999,4.00000000000784 L 120.499999999999,21.6999999999989 L 111.499999999999,21.699999999999 L 111.499999999999,4.00000000000784 L 106.499999999999,4.00000000000786 L 106.499999999998,1.0 L 96.4999999999979,1.00000000000239 L 96.499999999999,4.00000000000786 L 91.8999999999987,4.00000000000786 L 91.8999999999987,21.1999999999989 L 79.8999999999988,21.1999999999989 L 79.8999999999987,4.00000000000786 L 29.0000000000001,4.00000000000786 L 29.0000000000001,6.00000000000851 L 30.3,6.00000000000853 L 30.3,8.2000000000081 L 29.0,8.20000000000729 L 29.0000000000001,11.2000000000077 L 26.0000000000001,11.200000000008 L 26.0000000000001,8.20000000000827 L 24.7,8.20000000000738 L 24.7,6.0000000000076 L 26.0000000000001,6.0000000000084 L 26.0000000000001,4.00000000000786 L 21.0,4.00000000000786 L 21.0,1.00000000000844 L 11.0,1.0000000000066 L 11.0,4.00000000000787 L 1.00000000000003,4.00000000000787 L 1.0,124.000000000008 L 11.0,124.000000000008 L 11.0,127.000000000008 L 21.0,127.000000000008 L 21.0,124.000000000008 L 26.0000000000001,124.000000000008 L 26.0,122.000000000008 L 24.7,122.000000000008 L 24.7000000000001,119.800000000008 L 26.0,119.800000000008 L 26.0000000000001,116.800000000008 L 29.0000000000001,116.800000000008 L 29.0,119.800000000008 L 30.3,119.800000000008 L 30.3,122.000000000008 L 29.0000000000001,122.000000000008 L 29.0,124.000000000008 L 89.0000000000001,124.000000000008 L 89.0000000000001,127.000000000008 L 109.0,127.000000000008 L 109.0,124.000000000008 L 114.0,124.000000000008 L 114.0,122.000000000008 L 112.7,122.000000000008 L 112.7,119.800000000008 L 114.0,119.800000000008 L 114.0,116.800000000008 L 117.0,116.800000000008 L 117.0,119.800000000008 L 118.3,119.800000000008 L 118.3,122.000000000008 L 117.0,122.000000000008 L 117.0,124.000000000008 L 157.0,124.000000000008 L 157.0,74.0000000000078 L 160.0,74.0000000000078 L 160.0,54.0000000000078 L 157.0,54.0000000000078 L 157.0,4.00000000000784 M 108.448888739434,63.6117714323541 L 108.5,64.0000000000078 L 108.448888739434,64.3882285676616 L 108.299038105677,64.7500000000078 L 108.06066017178,65.0606601717877 L 107.75,65.2990381056845 L 107.388228567654,65.4488887394414 L 107.0,65.5000000000078 L 106.611771432346,65.4488887394414 L 106.25,65.2990381056845 L 105.93933982822,65.0606601717877 L 105.700961894323,64.7500000000078 L 105.551111260566,64.3882285676616 L 105.5,64.0000000000078 L 105.551111260566,63.6117714323541 L 105.700961894323,63.2500000000079 L 105.93933982822,62.939339828228 L 106.25,62.7009618943312 L 106.611771432346,62.5511112605742 L 107.0,62.5000000000079 L 107.388228567654,62.5511112605742 L 107.75,62.7009618943312 L 108.06066017178,62.939339828228 L 108.299038105677,63.2500000000079 L 108.448888739434,63.6117714323541 M 75.5000000000001,64.0000000000078 L 75.4488887394337,64.3882285676616 L 75.2990381056767,64.7500000000079 L 75.0606601717799,65.0606601717877 L 74.7500000000001,65.2990381056845 L 74.3882285676538,65.4488887394415 L 74.0000000000001,65.5000000000078 L 73.6117714323463,65.4488887394414 L 73.2500000000001,65.2990381056845 L 72.9393398282202,65.0606601717877 L 72.7009618943234,64.7500000000078 L 72.5511112605665,64.3882285676617 L 72.5000000000001,64.0000000000078 L 72.5511112605664,63.6117714323541 L 72.7009618943234,63.2500000000078 L 72.9393398282202,62.939339828228 L 73.2500000000001,62.7009618943312 L 73.6117714323463,62.5511112605742 L 74.0,62.5000000000078 L 74.3882285676538,62.5511112605742 L 74.75,62.7009618943312 L 75.0606601717799,62.939339828228 L 75.2990381056767,63.2500000000078 L 75.4488887394337,63.6117714323541 L 75.5000000000001,64.0000000000078 M 17.0,25.0735931288149 L 17.0511112605664,24.6853645611615 L 17.2009618943234,24.3235931288151 L 17.4393398282202,24.0129329570351 L 17.7500000000001,23.7745550231385 L 18.1117714323462,23.6247043893814 L 18.5,23.573593128815 L 18.8882285676538,23.6247043893815 L 19.25,23.7745550231382 L 19.5606601717799,24.0129329570351 L 19.7990381056767,24.3235931288151 L 19.9488887394336,24.6853645611611 L 20.0,25.073593128815 L 19.9488887394336,25.4618216964688 L 19.7990381056767,25.823593128815 L 19.5606601717799,26.1342533005949 L 19.25,26.3726312344916 L 18.8882285676538,26.5224818682488 L 18.5,26.5735931288149 L 18.1117714323462,26.5224818682487 L 17.75,26.3726312344917 L 17.4393398282202,26.1342533005948 L 17.2009618943234,25.823593128815 L 17.0511112605664,25.4618216964689 L 17.0,25.0735931288149 M 4.00000000000003,26.573593128815 L 4.00000000000003,23.5735931288151 L 14.0,23.573593128815 L 14.0,26.573593128815 L 4.00000000000003,26.573593128815 M 17.0,102.926406871201 L 17.0511112605664,102.538178303547 L 17.2009618943234,102.176406871201 L 17.4393398282202,101.865746699421 L 17.75,101.627368765524 L 18.1117714323462,101.477518131767 L 18.5,101.426406871201 L 18.8882285676538,101.477518131767 L 19.25,101.627368765524 L 19.5606601717799,101.865746699421 L 19.7990381056767,102.176406871201 L 19.9488887394336,102.538178303547 L 20.0,102.926406871201 L 19.9488887394336,103.314635438854 L 19.7990381056767,103.676406871201 L 19.5606601717799,103.98706704298 L 19.2500000000001,104.225444976877 L 18.8882285676538,104.375295610634 L 18.5,104.426406871201 L 18.1117714323463,104.375295610634 L 17.75,104.225444976877 L 17.4393398282202,103.98706704298 L 17.2009618943234,103.676406871201 L 17.0511112605664,103.314635438854 L 17.0,102.926406871201 M 4.0,101.426406871201 L 14.0000000000001,101.426406871201 L 14.0,104.426406871201 L 4.00000000000003,104.426406871201 L 4.0,101.426406871201 M 67.1117714323463,62.5511112605742 L 67.5,62.5000000000078 L 67.8882285676538,62.5511112605742 L 68.25,62.7009618943312 L 68.5606601717799,62.939339828228 L 68.7990381056767,63.2500000000079 L 68.9488887394337,63.6117714323541 L 69.0,64.0000000000078 L 68.9488887394336,64.3882285676616 L 68.7990381056767,64.7500000000078 L 68.5606601717799,65.0606601717876 L 68.25,65.2990381056845 L 67.8882285676538,65.4488887394414 L 67.5,65.5000000000078 L 67.1117714323462,65.4488887394414 L 66.75,65.2990381056845 L 66.4393398282202,65.0606601717877 L 66.2009618943234,64.7500000000078 L 66.0511112605665,64.3882285676616 L 66.0000000000001,64.0000000000078 L 66.0511112605664,63.6117714323541 L 66.2009618943234,63.2500000000079 L 66.4393398282202,62.939339828228 L 66.7500000000001,62.7009618943312 L 67.1117714323463,62.5511112605742 M 66.0000000000001,9.00000000000773 L 69.0,9.00000000000757 L 69.0,29.0000000000079 L 66.0000000000001,29.0000000000079 L 66.0000000000001,9.00000000000773 M 94.335183089105,109.926129138072 L 94.335183089105,100.926129138072 L 105.035183089105,100.926129138072 L 105.035183089105,109.926129138072 L 94.335183089105,109.926129138072 "
  />
  <path id="face0-interior"
 style="fill:none;stroke:#FFFFFF;stroke-width:false;stroke-miterlimit:4;stroke-dasharray:none;stroke-linejoin:round;stroke-linecap:round"
        d="M 157.0,4.00000000000784 M 120.499999999999,4.00000000000784 M 120.499999999999,21.6999999999989 M 111.499999999999,21.699999999999 M 111.499999999999,4.00000000000784 M 106.499999999999,4.00000000000786 M 106.499999999998,1.0 M 96.4999999999979,1.00000000000239 M 96.499999999999,4.00000000000786 M 91.8999999999987,4.00000000000786 M 91.8999999999987,21.1999999999989 M 79.8999999999988,21.1999999999989 M 79.8999999999987,4.00000000000786 M 29.0000000000001,4.00000000000786 M 29.0000000000001,6.00000000000851 M 30.3,6.00000000000853 M 30.3,8.2000000000081 M 29.0,8.20000000000729 M 29.0000000000001,11.2000000000077 M 26.0000000000001,11.200000000008 M 26.0000000000001,8.20000000000827 M 24.7,8.20000000000738 M 24.7,6.0000000000076 M 26.0000000000001,6.0000000000084 M 26.0000000000001,4.00000000000786 M 21.0,4.00000000000786 M 21.0,1.00000000000844 M 11.0,1.0000000000066 M 11.0,4.00000000000787 M 1.00000000000003,4.00000000000787 M 1.0,124.000000000008 M 11.0,124.000000000008 M 11.0,127.000000000008 M 21.0,127.000000000008 M 21.0,124.000000000008 M 26.0000000000001,124.000000000008 M 26.0,122.000000000008 M 24.7,122.000000000008 M 24.7000000000001,119.800000000008 M 26.0,119.800000000008 M 26.0000000000001,116.800000000008 M 29.0000000000001,116.800000000008 M 29.0,119.800000000008 M 30.3,119.800000000008 M 30.3,122.000000000008 M 29.0000000000001,122.000000000008 M 29.0,124.000000000008 M 89.0000000000001,124.000000000008 M 89.0000000000001,127.000000000008 M 109.0,127.000000000008 M 109.0,124.000000000008 M 114.0,124.000000000008 M 114.0,122.000000000008 M 112.7,122.000000000008 M 112.7,119.800000000008 M 114.0,119.800000000008 M 114.0,116.800000000008 M 117.0,116.800000000008 M 117.0,119.800000000008 M 118.3,119.800000000008 M 118.3,122.000000000008 M 117.0,122.000000000008 M 117.0,124.000000000008 M 157.0,124.000000000008 M 157.0,74.0000000000078 M 160.0,74.0000000000078 M 160.0,54.0000000000078 M 157.0,54.0000000000078 M 108.448888739434,63.6117714323541 M 108.5,64.0000000000078 M 108.448888739434,64.3882285676616 M 108.299038105677,64.7500000000078 M 108.06066017178,65.0606601717877 M 107.75,65.2990381056845 M 107.388228567654,65.4488887394414 M 107.0,65.5000000000078 M 106.611771432346,65.4488887394414 M 106.25,65.2990381056845 M 105.93933982822,65.0606601717877 M 105.700961894323,64.7500000000078 M 105.551111260566,64.3882285676616 M 105.5,64.0000000000078 M 105.551111260566,63.6117714323541 M 105.700961894323,63.2500000000079 M 105.93933982822,62.939339828228 M 106.25,62.7009618943312 M 106.611771432346,62.5511112605742 M 107.0,62.5000000000079 M 107.388228567654,62.5511112605742 M 107.75,62.7009618943312 M 108.06066017178,62.939339828228 M 108.299038105677,63.2500000000079 M 75.5000000000001,64.0000000000078 M 75.4488887394337,64.3882285676616 M 75.2990381056767,64.7500000000079 M 75.0606601717799,65.0606601717877 M 74.7500000000001,65.2990381056845 M 74.3882285676538,65.4488887394415 M 74.0000000000001,65.5000000000078 M 73.6117714323463,65.4488887394414 M 73.2500000000001,65.2990381056845 M 72.9393398282202,65.0606601717877 M 72.7009618943234,64.7500000000078 M 72.5511112605665,64.3882285676617 M 72.5000000000001,64.0000000000078 M 72.5511112605664,63.6117714323541 M 72.7009618943234,63.2500000000078 M 72.9393398282202,62.939339828228 M 73.2500000000001,62.7009618943312 M 73.6117714323463,62.5511112605742 M 74.0,62.5000000000078 M 74.3882285676538,62.5511112605742 M 74.75,62.7009618943312 M 75.0606601717799,62.939339828228 M 75.2990381056767,63.2500000000078 M 75.4488887394337,63.6117714323541 M 17.0,25.0735931288149 M 17.0511112605664,24.6853645611615 M 17.2009618943234,24.3235931288151 M 17.4393398282202,24.0129329570351 M 17.7500000000001,23.7745550231385 M 18.1117714323462,23.6247043893814 M 18.5,23.573593128815 M 18.8882285676538,23.6247043893815 M 19.25,23.7745550231382 M 19.5606601717799,24.0129329570351 M 19.7990381056767,24.3235931288151 M 19.9488887394336,24.6853645611611 M 20.0,25.073593128815 M 19.9488887394336,25.4618216964688 M 19.7990381056767,25.823593128815 M 19.5606601717799,26.1342533005949 M 19.25,26.3726312344916 M 18.8882285676538,26.5224818682488 M 18.5,26.5735931288149 M 18.1117714323462,26.5224818682487 M 17.75,26.3726312344917 M 17.4393398282202,26.1342533005948 M 17.2009618943234,25.823593128815 M 17.0511112605664,25.4618216964689 M 4.00000000000003,26.573593128815 M 4.00000000000003,23.5735931288151 M 14.0,23.573593128815 M 14.0,26.573593128815 M 17.0,102.926406871201 M 17.0511112605664,102.538178303547 M 17.2009618943234,102.176406871201 M 17.4393398282202,101.865746699421 M 17.75,101.627368765524 M 18.1117714323462,101.477518131767 M 18.5,101.426406871201 M 18.8882285676538,101.477518131767 M 19.25,101.627368765524 M 19.5606601717799,101.865746699421 M 19.7990381056767,102.176406871201 M 19.9488887394336,102.538178303547 M 20.0,102.926406871201 M 19.9488887394336,103.314635438854 M 19.7990381056767,103.676406871201 M 19.5606601717799,103.98706704298 M 19.2500000000001,104.225444976877 M 18.8882285676538,104.375295610634 M 18.5,104.426406871201 M 18.1117714323463,104.375295610634 M 17.75,104.225444976877 M 17.4393398282202,103.98706704298 M 17.2009618943234,103.676406871201 M 17.0511112605664,103.314635438854 M 4.0,101.426406871201 M 14.0000000000001,101.426406871201 M 14.0,104.426406871201 M 4.00000000000003,104.426406871201 M 67.1117714323463,62.5511112605742 M 67.5,62.5000000000078 M 67.8882285676538,62.5511112605742 M 68.25,62.7009618943312 M 68.5606601717799,62.939339828228 M 68.7990381056767,63.2500000000079 M 68.9488887394337,63.6117714323541 M 69.0,64.0000000000078 M 68.9488887394336,64.3882285676616 M 68.7990381056767,64.7500000000078 M 68.5606601717799,65.0606601717876 M 68.25,65.2990381056845 M 67.8882285676538,65.4488887394414 M 67.5,65.5000000000078 M 67.1117714323462,65.4488887394414 M 66.75,65.2990381056845 M 66.4393398282202,65.0606601717877 M 66.2009618943234,64.7500000000078 M 66.0511112605665,64.3882285676616 M 66.0000000000001,64.0000000000078 M 66.0511112605664,63.6117714323541 M 66.2009618943234,63.2500000000079 M 66.4393398282202,62.939339828228 M 66.7500000000001,62.7009618943312 M 66.0000000000001,9.00000000000773 M 69.0,9.00000000000757 M 69.0,29.0000000000079 M 66.0000000000001,29.0000000000079 M 94.335183089105,109.926129138072 M 94.335183089105,100.926129138072 M 105.035183089105,100.926129138072 M 105.035183089105,109.926129138072 "
  />
  <path id="face0-interior"
 style="fill:none;stroke:#FFFFFF;stroke-width:0;stroke-miterlimit:4;stroke-dasharray:none;stroke-linejoin:round;stroke-linecap:round"
        d="M 157.0,4.00000000000784 M 120.499999999999,4.00000000000784 M 120.499999999999,21.6999999999989 M 111.499999999999,21.699999999999 M 111.499999999999,4.00000000000784 M 106.499999999999,4.00000000000786 M 106.499999999998,1.0 M 96.4999999999979,1.00000000000239 M 96.499999999999,4.00000000000786 M 91.8999999999987,4.00000000000786 M 91.8999999999987,21.1999999999989 M 79.8999999999988,21.1999999999989 M 79.8999999999987,4.00000000000786 M 29.0000000000001,4.00000000000786 M 29.0000000000001,6.00000000000851 M 30.3,6.00000000000853 M 30.3,8.2000000000081 M 29.0,8.20000000000729 M 29.0000000000001,11.2000000000077 M 26.0000000000001,11.200000000008 M 26.0000000000001,8.20000000000827 M 24.7,8.20000000000738 M 24.7,6.0000000000076 M 26.0000000000001,6.0000000000084 M 26.0000000000001,4.00000000000786 M 21.0,4.00000000000786 M 21.0,1.00000000000844 M 11.0,1.0000000000066 M 11.0,4.00000000000787 M 1.00000000000003,4.00000000000787 M 1.0,124.000000000008 M 11.0,124.000000000008 M 11.0,127.000000000008 M 21.0,127.000000000008 M 21.0,124.000000000008 M 26.0000000000001,124.000000000008 M 26.0,122.000000000008 M 24.7,122.000000000008 M 24.7000000000001,119.800000000008 M 26.0,119.800000000008 M 26.0000000000001,116.800000000008 M 29.0000000000001,116.800000000008 M 29.0,119.800000000008 M 30.3,119.800000000008 M 30.3,122.000000000008 M 29.0000000000001,122.000000000008 M 29.0,124.000000000008 M 89.0000000000001,124.000000000008 M 89.0000000000001,127.000000000008 M 109.0,127.000000000008 M 109.0,124.000000000008 M 114.0,124.000000000008 M 114.0,122.000000000008 M 112.7,122.000000000008 M 112.7,119.800000000008 M 114.0,119.800000000008 M 114.0,116.800000000008 M 117.0,116.800000000008 M 117.0,119.800000000008 M 118.3,119.800000000008 M 118.3,122.000000000008 M 117.0,122.000000000008 M 117.0,124.000000000008 M 157.0,124.000000000008 M 157.0,74.0000000000078 M 160.0,74.0000000000078 M 160.0,54.0000000000078 M 157.0,54.0000000000078 M 108.448888739434,63.6117714323541 M 108.5,64.0000000000078 M 108.448888739434,64.3882285676616 M 108.299038105677,64.7500000000078 M 108.06066017178,65.0606601717877 M 107.75,65.2990381056845 M 107.388228567654,65.4488887394414 M 107.0,65.5000000000078 M 106.611771432346,65.4488887394414 M 106.25,65.2990381056845 M 105.93933982822,65.0606601717877 M 105.700961894323,64.7500000000078 M 105.551111260566,64.3882285676616 M 105.5,64.0000000000078 M 105.551111260566,63.6117714323541 M 105.700961894323,63.2500000000079 M 105.93933982822,62.939339828228 M 106.25,62.7009618943312 M 106.611771432346,62.5511112605742 M 107.0,62.5000000000079 M 107.388228567654,62.5511112605742 M 107.75,62.7009618943312 M 108.06066017178,62.939339828228 M 108.299038105677,63.2500000000079 M 75.5000000000001,64.0000000000078 M 75.4488887394337,64.3882285676616 M 75.2990381056767,64.7500000000079 M 75.0606601717799,65.0606601717877 M 74.7500000000001,65.2990381056845 M 74.3882285676538,65.4488887394415 M 74.0000000000001,65.5000000000078 M 73.6117714323463,65.4488887394414 M 73.2500000000001,65.2990381056845 M 72.9393398282202,65.0606601717877 M 72.7009618943234,64.7500000000078 M 72.5511112605665,64.3882285676617 M 72.5000000000001,64.0000000000078 M 72.5511112605664,63.6117714323541 M 72.7009618943234,63.2500000000078 M 72.9393398282202,62.939339828228 M 73.2500000000001,62.7009618943312 M 73.6117714323463,62.5511112605742 M 74.0,62.5000000000078 M 74.3882285676538,62.5511112605742 M 74.75,62.7009618943312 M 75.0606601717799,62.939339828228 M 75.2990381056767,63.2500000000078 M 75.4488887394337,63.6117714323541 M 17.0,25.0735931288149 M 17.0511112605664,24.6853645611615 M 17.2009618943234,24.3235931288151 M 17.4393398282202,24.0129329570351 M 17.7500000000001,23.7745550231385 M 18.1117714323462,23.6247043893814 M 18.5,23.573593128815 M 18.8882285676538,23.6247043893815 M 19.25,23.7745550231382 M 19.5606601717799,24.0129329570351 M 19.7990381056767,24.3235931288151 M 19.9488887394336,24.6853645611611 M 20.0,25.073593128815 M 19.9488887394336,25.4618216964688 M 19.7990381056767,25.823593128815 M 19.5606601717799,26.1342533005949 M 19.25,26.3726312344916 M 18.8882285676538,26.5224818682488 M 18.5,26.5735931288149 M 18.1117714323462,26.5224818682487 M 17.75,26.3726312344917 M 17.4393398282202,26.1342533005948 M 17.2009618943234,25.823593128815 M 17.0511112605664,25.4618216964689 M 4.00000000000003,26.573593128815 M 4.00000000000003,23.5735931288151 M 14.0,23.573593128815 M 14.0,26.573593128815 M 17.0,102.926406871201 M 17.0511112605664,102.538178303547 M 17.2009618943234,102.176406871201 M 17.4393398282202,101.865746699421 M 17.75,101.627368765524 M 18.1117714323462,101.477518131767 M 18.5,101.426406871201 M 18.8882285676538,101.477518131767 M 19.25,101.627368765524 M 19.5606601717799,101.865746699421 M 19.7990381056767,102.176406871201 M 19.9488887394336,102.538178303547 M 20.0,102.926406871201 M 19.9488887394336,103.314635438854 M 19.7990381056767,103.676406871201 M 19.5606601717799,103.98706704298 M 19.2500000000001,104.225444976877 M 18.8882285676538,104.375295610634 M 18.5,104.426406871201 M 18.1117714323463,104.375295610634 M 17.75,104.225444976877 M 17.4393398282202,103.98706704298 M 17.2009618943234,103.676406871201 M 17.0511112605664,103.314635438854 M 4.0,101.426406871201 M 14.0000000000001,101.426406871201 M 14.0,104.426406871201 M 4.00000000000003,104.426406871201 M 67.1117714323463,62.5511112605742 M 67.5,62.5000000000078 M 67.8882285676538,62.5511112605742 M 68.25,62.7009618943312 M 68.5606601717799,62.939339828228 M 68.7990381056767,63.2500000000079 M 68.9488887394337,63.6117714323541 M 69.0,64.0000000000078 M 68.9488887394336,64.3882285676616 M 68.7990381056767,64.7500000000078 M 68.5606601717799,65.0606601717876 M 68.25,65.2990381056845 M 67.8882285676538,65.4488887394414 M 67.5,65.5000000000078 M 67.1117714323462,65.4488887394414 M 66.75,65.2990381056845 M 66.4393398282202,65.0606601717877 M 66.2009618943234,64.7500000000078 M 66.0511112605665,64.3882285676616 M 66.0000000000001,64.0000000000078 M 66.0511112605664,63.6117714323541 M 66.2009618943234,63.2500000000079 M 66.4393398282202,62.939339828228 M 66.7500000000001,62.7009618943312 M 66.0000000000001,9.00000000000773 M 69.0,9.00000000000757 M 69.0,29.0000000000079 M 66.0000000000001,29.0000000000079 M 94.335183089105,109.926129138072 M 94.335183089105,100.926129138072 M 105.035183089105,100.926129138072 M 105.035183089105,109.926129138072 "
  />
</svg>
